<?xml version="1.0" encoding="utf-8"?>
<!-- Generator: Adobe Illustrator 18.1.1, SVG Export Plug-In . SVG Version: 6.00 Build 0)  -->
<svg version="1.1" id="Layer_1" xmlns="http://www.w3.org/2000/svg" xmlns:xlink="http://www.w3.org/1999/xlink" x="0px" y="0px"
	 viewBox="0 0 56.4 37.5" enable-background="new 0 0 56.4 37.5" xml:space="preserve">
<path fill="#048C7F" d="M28.2,37.5L28.2,37.5c-2.3,0-4.1-1.8-4.1-4.1V4.1c0-2.3,1.8-4.1,4.1-4.1h0c2.3,0,4.1,1.8,4.1,4.1v29.3
	C32.3,35.6,30.5,37.5,28.2,37.5z"/>
<path fill="#126965" d="M16.1,32.9L16.1,32.9c-2.3,0-4.1-1.8-4.1-4.1V8.7c0-2.3,1.8-4.1,4.1-4.1h0c2.3,0,4.1,1.8,4.1,4.1v20.1
	C20.2,31.1,18.4,32.9,16.1,32.9z"/>
<path fill="#0AA689" d="M40.2,32.9L40.2,32.9c-2.3,0-4.1-1.8-4.1-4.1V8.7c0-2.3,1.8-4.1,4.1-4.1h0c2.3,0,4.1,1.8,4.1,4.1v20.1
	C44.3,31.1,42.5,32.9,40.2,32.9z"/>
<path fill="#26BF87" d="M52.3,24.8L52.3,24.8c-2.3,0-4.1-1.8-4.1-4.1v-3.9c0-2.3,1.8-4.1,4.1-4.1h0c2.3,0,4.1,1.8,4.1,4.1v3.9
	C56.4,22.9,54.6,24.8,52.3,24.8z"/>
<path fill="#10445E" d="M4.1,24.8L4.1,24.8c-2.3,0-4.1-1.8-4.1-4.1l0-3.9c0-2.3,1.8-4.1,4.1-4.1h0c2.3,0,4.1,1.8,4.1,4.1v3.9
	C8.2,22.9,6.4,24.8,4.1,24.8z"/>
</svg>
