<?xml version="1.0" encoding="utf-8"?>
<!-- Generator: Adobe Illustrator 18.1.1, SVG Export Plug-In . SVG Version: 6.00 Build 0)  -->
<svg version="1.1" id="Layer_1" xmlns="http://www.w3.org/2000/svg" xmlns:xlink="http://www.w3.org/1999/xlink" x="0px" y="0px"
	 viewBox="0 0 50 50" enable-background="new 0 0 50 50" xml:space="preserve">
<path fill="#26BF87" d="M39.7,43.8h-0.4c-2.7,0-5.3-2.6-5.3-5.2v-9.5L10.1,43c-0.4,0.3-0.9,0.4-1.4,0.4c-1.5,0-2.7-1.3-2.7-2.8V9.2
	c0-1.5,1.2-2.8,2.7-2.8c0.5,0,0.9,0.1,1.4,0.4L34,20.7v-9.5c0-2.7,2.7-4.4,5.3-4.4h0.4c2.6,0,4.4,1.8,4.4,4.4v27.4
	C44,41.1,42.4,43.8,39.7,43.8z M35,27.3v11.2c0,2,2.2,4.2,4.3,4.2h0.4c2.1,0,3.4-2.2,3.4-4.2V11.2c0-2.1-1.3-3.4-3.4-3.4h-0.4
	c-2.1,0-4.3,1.4-4.3,3.4v11.2L9.6,7.7C9.3,7.5,9,7.4,8.7,7.4C7.9,7.4,7,8.1,7,9.2v31.3c0,1.1,0.9,1.8,1.7,1.8c0.3,0,0.6-0.1,0.9-0.2
	L35,27.3z"/>
</svg>
