<?xml version="1.0" encoding="utf-8"?>
<!-- Generator: Adobe Illustrator 18.1.1, SVG Export Plug-In . SVG Version: 6.00 Build 0)  -->
<svg version="1.1" id="Layer_1" xmlns="http://www.w3.org/2000/svg" xmlns:xlink="http://www.w3.org/1999/xlink" x="0px" y="0px"
	 viewBox="0 0 50 50" enable-background="new 0 0 50 50" xml:space="preserve">
<g>
	<path fill="#26BF87" d="M16.5,43L16.5,43C14,43,12,41,12,38.5V11.5C12,9,14,7,16.5,7h0c2.4,0,4.4,2,4.4,4.4v27.1
		C20.9,41,18.9,43,16.5,43z"/>
	<path fill="#26BF87" d="M33.5,43L33.5,43c-2.4,0-4.4-2-4.4-4.4V11.5c0-2.4,2-4.4,4.4-4.4h0C36,7,38,9,38,11.5v27.1
		C38,41,36,43,33.5,43z"/>
</g>
</svg>
