<?xml version="1.0" encoding="utf-8"?>
<!-- Generator: Adobe Illustrator 18.1.1, SVG Export Plug-In . SVG Version: 6.00 Build 0)  -->
<svg version="1.1" id="Layer_1" xmlns="http://www.w3.org/2000/svg" xmlns:xlink="http://www.w3.org/1999/xlink" x="0px" y="0px"
	 viewBox="0 0 50 50" enable-background="new 0 0 50 50" xml:space="preserve">
<g>
	<path fill="#26BF87" d="M16.5,43.3c-2.7,0-4.9-2.2-4.9-4.9V11.4c0-2.7,2.2-4.9,4.9-4.9s4.9,2.2,4.9,4.9v27.1
		C21.4,41.1,19.2,43.3,16.5,43.3z M16.5,7.4c-2.2,0-3.9,1.8-3.9,3.9v27.1c0,2.2,1.8,3.9,3.9,3.9c2.2,0,3.9-1.8,3.9-3.9V11.4
		C20.4,9.2,18.6,7.4,16.5,7.4z"/>
	<path fill="#26BF87" d="M33.5,43.3c-2.7,0-4.9-2.2-4.9-4.9V11.4c0-2.7,2.2-4.9,4.9-4.9s4.9,2.2,4.9,4.9v27.1
		C38.5,41.1,36.3,43.3,33.5,43.3z M33.5,7.4c-2.2,0-3.9,1.8-3.9,3.9v27.1c0,2.2,1.8,3.9,3.9,3.9c2.2,0,3.9-1.8,3.9-3.9V11.4
		C37.5,9.2,35.7,7.4,33.5,7.4z"/>
</g>
</svg>
