<?xml version="1.0" encoding="utf-8"?>
<!-- Generator: Adobe Illustrator 18.1.1, SVG Export Plug-In . SVG Version: 6.00 Build 0)  -->
<svg version="1.1" id="Layer_1" xmlns="http://www.w3.org/2000/svg" xmlns:xlink="http://www.w3.org/1999/xlink" x="0px" y="0px"
	 viewBox="0 0 800 800" enable-background="new 0 0 800 800" xml:space="preserve">
<g>
	<polygon fill="#26BF87" points="653.2,192.3 626.8,366.5 489.2,256.6 	"/>
	<g>
		<path fill="#26BF87" d="M633,514.2l-29.4-38.3C572.9,555.1,496,611.3,406.1,611.3c-116.8,0-211.6-95-211.6-211.6
			s95-211.6,211.6-211.6c64.1,0,121.6,28.7,160.6,73.9l69.7-22.8c-9.3-13.4-19.9-26-31.7-37.7c-53.1-53.1-123.5-82.2-198.5-82.2
			s-145.5,29.2-198.5,82.2S125.4,324.9,125.4,400s29.2,145.5,82.2,198.5c52.9,53.1,123.5,82.2,198.5,82.2s145.5-29.2,198.5-82.2
			c32.9-32.9,56.7-72.6,70-115.9L633,514.2z"/>
	</g>
</g>
</svg>
