<?xml version="1.0" encoding="utf-8"?>
<!-- Generator: Adobe Illustrator 18.1.1, SVG Export Plug-In . SVG Version: 6.00 Build 0)  -->
<svg version="1.1" id="Layer_1" xmlns="http://www.w3.org/2000/svg" xmlns:xlink="http://www.w3.org/1999/xlink" x="0px" y="0px"
	 viewBox="0 0 50 50" enable-background="new 0 0 50 50" xml:space="preserve">
<path fill="#26BF87" d="M43.4,26.1l0,0.4c-0.2,0.7-0.8,0.5-1.5,0.4l-2-0.5c-0.3,7.6-6,12.6-13.7,12.8c-7.6,0.1-14.2-6-14.6-13.6
	c-0.4-8.3,6.2-15.1,14.4-15.1c4.1,0,7.8,1.7,10.4,4.4l-1.5,0.5c-0.5,0.2-0.6,0.8-0.2,1.1l6.7,6c0.4,0.3,1,0.1,1.1-0.4l1.8-8.8
	c0.1-0.5-0.4-0.9-0.9-0.8l-3,1c-3.8-4.8-10-7.7-16.8-6.9C14.9,7.7,8,15.2,7.7,24.1c-0.4,10.8,8.1,19.6,18.9,19.1
	c9.7-0.5,16.8-7.2,16.8-16.9V26.1z"/>
</svg>
