<?xml version="1.0" encoding="utf-8"?>
<!-- Generator: Adobe Illustrator 18.1.1, SVG Export Plug-In . SVG Version: 6.00 Build 0)  -->
<svg version="1.1" id="Layer_1" xmlns="http://www.w3.org/2000/svg" xmlns:xlink="http://www.w3.org/1999/xlink" x="0px" y="0px"
	 viewBox="0 0 50 50" enable-background="new 0 0 50 50" xml:space="preserve">
<path fill="#26BF87" d="M24.7,43.9L24.7,43.9c-5.1,0-9.8-2-13.2-5.6c-3.6-3.7-5.4-8.7-5.2-14c0.4-9.1,7.4-16.8,16.4-17.9
	c0.8-0.1,1.6-0.1,2.4-0.1c5.7,0,11,2.5,14.6,7l2.7-0.9c0.5-0.2,1,0,1.3,0.4c0.2,0.3,0.3,0.6,0.2,1L42,22.5c-0.1,0.5-0.6,0.9-1.1,0.9
	c-0.3,0-0.6-0.1-0.8-0.3l-6.7-6c-0.3-0.3-0.5-0.7-0.4-1.1s0.4-0.7,0.8-0.9l0.7-0.2c-2.6-2.4-5.9-3.7-9.5-3.7
	c-3.8,0-7.4,1.5-10.1,4.3c-2.6,2.8-4,6.4-3.8,10.3C11.5,33.1,17.7,39,25,39c0,0,0,0,0,0l0.2,0c7.6-0.1,12.9-5,13.2-12.3l0-0.6
	l2.7,0.7c0.2,0,0.4,0.1,0.5,0.1c0.1,0,0.2,0,0.2-0.2l0-0.3l1,0.1v0.1c0,9.7-7.1,16.9-17.3,17.4C25.3,43.9,25,43.9,24.7,43.9z
	 M25,7.3c-0.8,0-1.5,0-2.3,0.1c-8.5,1.1-15.2,8.3-15.5,17c-0.2,5,1.6,9.7,5,13.3c3.3,3.4,7.7,5.3,12.5,5.3l0,0c0.3,0,0.6,0,0.9,0
	c9.1-0.4,15.7-6.6,16.3-15.1c-0.3,0-0.6,0-0.9-0.1l-0.1,0l-1.4-0.4C38.8,34.7,33,39.9,25.2,40L25,40c-7.8,0-14.4-6.3-14.8-14.1
	c-0.2-4.1,1.2-8,4.1-11c2.8-3,6.7-4.6,10.8-4.6c4.1,0,7.9,1.6,10.8,4.6l0.5,0.6l-2.2,0.7c-0.1,0-0.1,0.1-0.1,0.1s0,0.1,0,0.2l6.7,6
	c0.1,0.1,0.2,0.1,0.3-0.1l1.8-8.8c0,0,0-0.1,0-0.1c0,0-0.1-0.1-0.1-0.1l-3.4,1.1L39,14.1C35.6,9.8,30.5,7.3,25,7.3z"/>
</svg>
