<?xml version="1.0" encoding="utf-8"?>
<!-- Generator: Adobe Illustrator 18.1.1, SVG Export Plug-In . SVG Version: 6.00 Build 0)  -->
<svg version="1.1" id="Layer_1" xmlns="http://www.w3.org/2000/svg" xmlns:xlink="http://www.w3.org/1999/xlink" x="0px" y="0px"
	 viewBox="0 0 50 50" enable-background="new 0 0 50 50" xml:space="preserve">
<path fill="#26BF87" d="M11.8,43.8h-0.4C8.8,43.8,6,41,6,38.4V11c0-2.6,2.7-4.2,5.4-4.2h0.4c2.6,0,4.3,1.6,4.3,4.2v9.5L40,6.6
	c0.4-0.3,0.9-0.4,1.4-0.4C42.8,6.2,44,7.5,44,9v31.3c0,1.5-1.2,2.8-2.7,2.8c-0.5,0-0.9-0.1-1.4-0.4L16,28.9v9.5
	C16,41,14.4,43.8,11.8,43.8z M11.4,7.8C9.3,7.8,7,9,7,11v27.4c0,2.1,2.3,4.4,4.4,4.4h0.4c2,0,3.3-2.3,3.3-4.4V27.1l25.4,14.7
	c0.3,0.2,0.6,0.2,0.9,0.2c0.8,0,1.7-0.7,1.7-1.8V9c0-1.1-0.9-1.8-1.7-1.8c-0.3,0-0.6,0.1-0.9,0.2L15,22.2V11c0-2.1-1.2-3.2-3.3-3.2
	H11.4z"/>
</svg>
