<?xml version="1.0" encoding="utf-8"?>
<!-- Generator: Adobe Illustrator 18.1.1, SVG Export Plug-In . SVG Version: 6.00 Build 0)  -->
<svg version="1.1" id="Layer_1" xmlns="http://www.w3.org/2000/svg" xmlns:xlink="http://www.w3.org/1999/xlink" x="0px" y="0px"
	 viewBox="621 190 700 700" enable-background="new 621 190 700 700" xml:space="preserve">
<g>
	<path fill="#26BF87" d="M1241.6,685.8h-231.2c-66.8,0-127.8-51.6-181.3-153.5c-22.8-43.4-62-69.2-105-69.2h-94.5v-70.3H724
		c68.5,0,132.6,40.9,167.2,106.8c39.3,74.7,81.6,115.9,119.1,115.9h231.2V685.8z"/>
	<path fill="#26BF87" d="M724,684.6h-94.5v-70.3H724c43,0,82.3-25.6,105.1-68.4c53.6-100.7,114.5-151.8,181.2-151.8h231.2v70.3
		h-231.2c-37.6,0-79.9,40.7-119.2,114.5C856.5,644.1,792.5,684.6,724,684.6z"/>
	<polygon fill="#26BF87" points="1162,341.2 1313.3,428.5 1162,515.9 	"/>
	<polygon fill="#26BF87" points="1162,563.7 1313.3,651.1 1162,738.5 	"/>
</g>
</svg>
