<?xml version="1.0" encoding="utf-8"?>
<!-- Generator: Adobe Illustrator 18.1.1, SVG Export Plug-In . SVG Version: 6.00 Build 0)  -->
<svg version="1.1" id="Layer_1" xmlns="http://www.w3.org/2000/svg" xmlns:xlink="http://www.w3.org/1999/xlink" x="0px" y="0px"
	 viewBox="0 0 800 800" enable-background="new 0 0 800 800" xml:space="preserve">
<polygon fill="none" stroke="#26BF87" stroke-width="40" stroke-miterlimit="10" points="230.6,208.6 170.3,313.4 48.1,313.4 
	48.1,487.7 170.3,487.7 230.6,592.5 342,592.5 342,208.6 "/>
<path fill="#26BF87" d="M450.8,541.5V474c40.1,0,73.8-33.1,73.8-73.8s-33.7-73.8-73.8-73.8v-67.5c77.9,0,141.4,63.4,141.4,141.4
	C592.2,478.1,528.7,541.5,450.8,541.5z"/>
<path fill="#26BF87" d="M556.2,625.9v-67.5c85.9,0,158.2-70.9,158.2-158.2S642.1,242,556.2,242v-67.5c60.7,0,116.8,23.5,159.4,66.1
	c42.5,42.6,65.8,99.2,65.8,159.6c0,60.3-23.1,117-65.7,159.6C673.1,602.4,616.9,625.9,556.2,625.9z"/>
</svg>
